<svg width="650" height="651" viewBox="0 0 650 651" fill="none" xmlns="http://www.w3.org/2000/svg">
<path d="M325 650C504.493 650 650 504.493 650 325C650 145.507 504.493 0 325 0C145.507 0 0 145.507 0 325C0 504.493 145.507 650 325 650Z" fill="#6DCBE8"/>
<path d="M93.22 445.28C85.92 430.4 69.04 410.45 55.71 400.61L2 360.96C10.89 441.75 49.3799 513.62 106.4 565.49C106.93 563.65 107.45 561.82 107.96 560.03C117.28 527.34 114.78 492.4 100.79 461.42C98.22 455.73 95.65 450.2 93.23 445.28H93.22Z" fill="#66BC5C"/>
<path d="M23.29 204L77.6799 184.02C93.2299 178.31 114.46 163.37 125.09 150.67L128.59 146.48C139.22 133.77 144.81 110.38 141.08 94.2401L133.23 62.5701C127.4 66.5201 120.94 72.0301 115.05 76.9301C74.94 110.91 43.18 154.43 23.28 204H23.29Z" fill="#66BC5C"/>
<path d="M649.26 303.23C641.53 186.38 572.07 86.41 473.16 35.66C445.15 70.38 392.36 108.49 392.36 108.49C382.36 114.68 367.7 133.77 358.59 146.37C354.96 151.39 352.27 157.02 350.66 163C348.44 171.24 346.04 183.01 347.62 191.3L353.4 221.48C356.07 235.42 368.01 240.53 379.94 232.84L461.7 205.5C473.68 197.78 488.01 201.76 493.72 214.4C496.17 219.84 455.52 255.44 489.99 279.67C532.37 309.46 635.58 313.46 649.81 313.88C649.77 310.18 649.5 306.77 649.26 303.22V303.23Z" fill="#66BC5C"/>
<path d="M423.7 321.37C410.56 308.19 385.12 301.45 367.18 306.41L252.79 337.98C234.85 342.93 215.6 361.52 210.03 379.28L189.8 443.72C187.6 450.72 186.4 459.44 186.15 468.5C185.54 490.47 199.95 510.05 221.09 516.06L266.39 528.92C278.9 532.47 288.52 542.49 291.56 555.14L314.32 649.82C317.87 649.93 321.42 650.01 325 650.01C382.22 650.01 435.98 635.2 482.68 609.24L520.21 459.27C524.73 441.21 517.67 415.65 504.53 402.47L423.7 321.38V321.37Z" fill="#66BC5C"/>
<g style="mix-blend-mode:soft-light" opacity="0.23">
<path d="M650 325C650 145.51 504.49 0 325 0V650C504.49 650 650 504.49 650 325Z" fill="black"/>
</g>
</svg>
