<svg width="651" height="650" viewBox="0 0 651 650" fill="none" xmlns="http://www.w3.org/2000/svg">
<path d="M325 650C504.493 650 650 504.493 650 325C650 145.507 504.493 0 325 0C145.507 0 0 145.507 0 325C0 504.493 145.507 650 325 650Z" fill="#F7D3BF"/>
<path d="M14.4 420.92C24.9 454.95 40.84 486.59 61.2 514.83C337.43 515.81 489.43 524.98 572.65 535.43C600.06 503.21 621.29 465.57 634.51 424.35C461.72 466.72 142.61 435.96 14.4 420.91V420.92Z" fill="#E5B585"/>
<path d="M636.35 231.58C625.82 196.43 609.5 163.78 588.49 134.73L153.9 48.66C126.85 65.44 102.46 86.0801 81.47 109.81C153.71 156.12 315.74 226.69 636.35 231.58Z" fill="#E5B585"/>
<path d="M650 325C650 311.75 649.19 298.69 647.65 285.85C320.64 277.75 132.66 197.43 50.49 150.98C18.53 201.29 0.0100098 260.98 0.0100098 325C0.0100098 326.08 0.0399878 327.14 0.0499878 328.22C188.67 412.09 486.42 386 642.37 395.28C647.36 372.65 650.01 349.14 650.01 325H650Z" fill="#E5B585"/>
<path d="M47.6899 494.54C60.6899 515.75 76.0499 535.35 93.4099 552.99C245.18 530.23 445.67 540.48 559.95 549.55C582.79 525.65 602.01 498.27 616.77 468.29C403.27 504.02 150.97 498.76 47.6899 494.54Z" fill="#D39272"/>
<path d="M133.68 62.28C378.15 152.84 516.53 158.56 593.61 142.02C573.57 112.66 548.86 86.76 520.52 65.39C398.73 86.18 283.19 55.9 202.84 23.76C178.12 33.79 154.92 46.78 133.67 62.28H133.68Z" fill="#D39272"/>
<path d="M325 650C370.47 650 413.75 640.65 453.04 623.79C311.98 590.25 227.88 599.67 180.01 615.92C223.66 637.72 272.89 650 325 650Z" fill="#E5B585"/>
<path d="M648.76 353.46C649.16 348.82 649.47 344.16 649.68 339.46C649.68 339.38 649.68 339.31 649.69 339.23C649.79 337.05 649.85 334.87 649.91 332.68C649.91 332.29 649.93 331.89 649.93 331.5C649.97 329.34 650 327.17 650 325C650 311.75 649.19 298.69 647.65 285.85C320.64 277.75 132.66 197.43 50.49 150.98C24.06 192.59 6.83003 240.61 1.66003 292.19C71.01 321.89 215.2 353.46 648.77 353.46H648.76Z" fill="#D39272"/>
<g style="mix-blend-mode:soft-light" opacity="0.2">
<path d="M650 325C650 145.51 504.49 0 325 0V650C504.49 650 650 504.49 650 325Z" fill="black"/>
</g>
</svg>
