<svg width="650" height="650" viewBox="0 0 650 650" fill="none" xmlns="http://www.w3.org/2000/svg">
<path d="M325 650C504.493 650 650 504.493 650 325C650 145.507 504.493 0 325 0C145.507 0 0 145.507 0 325C0 504.493 145.507 650 325 650Z" fill="#DD4531"/>
<path d="M457 332.68C495.66 332.68 527 301.34 527 262.68C527 224.02 495.66 192.68 457 192.68C418.34 192.68 387 224.02 387 262.68C387 301.34 418.34 332.68 457 332.68Z" fill="#C9312D"/>
<path d="M362.13 2.12C368 34.84 396.59 59.67 431 59.67C450.21 59.67 467.6 51.93 480.25 39.4C444.42 19.88 404.51 6.92999 362.13 2.10999V2.12Z" fill="#C9312D"/>
<path d="M418 512.7C437.341 512.7 453.02 497.021 453.02 477.68C453.02 458.339 437.341 442.66 418 442.66C398.659 442.66 382.98 458.339 382.98 477.68C382.98 497.021 398.659 512.7 418 512.7Z" fill="#C9312D"/>
<path d="M270.031 295.639C279.399 291.759 283.847 281.019 279.967 271.651C276.087 262.282 265.346 257.834 255.978 261.714C246.61 265.595 242.162 276.335 246.042 285.703C249.922 295.071 260.662 299.519 270.031 295.639Z" fill="#C9312D"/>
<path d="M183 188.36C207.301 188.36 227 167.837 227 142.52C227 117.203 207.301 96.6799 183 96.6799C158.699 96.6799 139 117.203 139 142.52C139 167.837 158.699 188.36 183 188.36Z" fill="#C9312D"/>
<path d="M185 524.68C228.078 524.68 263 489.758 263 446.68C263 403.602 228.078 368.68 185 368.68C141.922 368.68 107 403.602 107 446.68C107 489.758 141.922 524.68 185 524.68Z" fill="#C9312D"/>
<g style="mix-blend-mode:soft-light" opacity="0.2">
<path d="M650 325C650 145.51 504.49 0 325 0V650C504.49 650 650 504.49 650 325Z" fill="black"/>
</g>
</svg>
