<svg width="650" height="650" viewBox="0 0 650 650" fill="none" xmlns="http://www.w3.org/2000/svg">
<path d="M325 650C504.493 650 650 504.493 650 325C650 145.507 504.493 0 325 0C145.507 0 0 145.507 0 325C0 504.493 145.507 650 325 650Z" fill="#BF9173"/>
<path d="M171.68 263.66C199.852 263.66 222.69 247.327 222.69 227.18C222.69 207.033 199.852 190.7 171.68 190.7C143.508 190.7 120.67 207.033 120.67 227.18C120.67 247.327 143.508 263.66 171.68 263.66Z" fill="#A5785E"/>
<path d="M520.21 305.02C559.152 305.02 590.72 279.872 590.72 248.85C590.72 217.828 559.152 192.68 520.21 192.68C481.268 192.68 449.7 217.828 449.7 248.85C449.7 279.872 481.268 305.02 520.21 305.02Z" fill="#A5785E"/>
<path d="M449.85 370C492.845 370 527.7 345.08 527.7 314.34C527.7 283.6 492.845 258.68 449.85 258.68C406.855 258.68 372 283.6 372 314.34C372 345.08 406.855 370 449.85 370Z" fill="#A5785E"/>
<path d="M273.69 393.43C273.69 412.91 256.23 428.71 234.69 428.71C213.15 428.71 195.69 412.92 195.69 393.43C195.69 373.94 213.15 362.15 234.69 362.15C256.23 362.15 273.69 373.94 273.69 393.43Z" fill="#A5785E"/>
<path d="M291.34 188.68C305.512 188.68 317 177.263 317 163.18C317 149.097 305.512 137.68 291.34 137.68C277.168 137.68 265.68 149.097 265.68 163.18C265.68 177.263 277.168 188.68 291.34 188.68Z" fill="#A5785E"/>
<path d="M445.45 534.71C464.918 534.71 480.7 517.921 480.7 497.21C480.7 476.499 464.918 459.71 445.45 459.71C425.982 459.71 410.2 476.499 410.2 497.21C410.2 517.921 425.982 534.71 445.45 534.71Z" fill="#A5785E"/>
<path d="M228.967 550.001C236.582 542.386 236.582 530.039 228.967 522.424C221.352 514.809 209.005 514.809 201.39 522.424C193.775 530.039 193.775 542.386 201.39 550.001C209.005 557.616 221.352 557.616 228.967 550.001Z" fill="#A5785E"/>
<path d="M18.6601 325C12.0201 325 5.72005 326.45 0.0500488 329.03C0.410049 358.67 4.72007 387.36 12.5101 414.58C14.5201 414.86 16.5701 415.01 18.6601 415.01C43.5201 415.01 63.6601 394.86 63.6601 370.01C63.6601 345.16 43.5101 325.01 18.6601 325.01V325Z" fill="#A5785E"/>
<path d="M278.96 3.26001C275.57 7.72001 273.69 12.58 273.69 17.67C273.69 39.21 307.04 56.67 348.17 56.67C389.3 56.67 422.65 39.21 422.65 17.67C422.65 16.73 422.56 15.8 422.44 14.87C391.68 5.21 358.95 0 325 0C309.37 0 294 1.13001 278.96 3.26001Z" fill="#A5785E"/>
<path d="M588.39 398.65C558.98 398.65 535.14 433.81 535.14 477.18C535.14 507.01 546.42 532.96 563.03 546.25C593.31 513.69 616.99 474.9 631.94 432.02C622.3 411.84 606.4 398.65 588.39 398.65Z" fill="#A5785E"/>
<g style="mix-blend-mode:soft-light" opacity="0.17">
<path d="M650 325C650 145.51 504.49 0 325 0V650C504.49 650 650 504.49 650 325Z" fill="black"/>
</g>
</svg>
