<svg width="650" height="650" viewBox="0 0 650 650" fill="none" xmlns="http://www.w3.org/2000/svg">
<path d="M325 650C504.493 650 650 504.493 650 325C650 145.507 504.493 0 325 0C145.507 0 0 145.507 0 325C0 504.493 145.507 650 325 650Z" fill="#3B54D1"/>
<path d="M82.15 178.56C159.15 200.75 240.85 212 325 212C409.15 212 490.85 200.75 567.85 178.56C581.61 174.59 595.1 170.3 608.33 165.7C589.64 132.53 565.3 102.97 536.6 78.3301C472.83 99.8701 401 112 325 112C249 112 177.17 99.8701 113.4 78.3301C84.7 102.97 60.36 132.53 41.67 165.7C54.9 170.3 68.38 174.59 82.15 178.56Z" fill="#2C51B7"/>
<path d="M325 402.98C248.69 402.98 174.57 415.03 104.7 438.79C79.88 447.23 56 457.02 33.13 468.09C55.26 513.15 87.5101 552.32 126.93 582.67C185.17 555.52 252.83 539.97 325 539.97C397.17 539.97 464.82 555.52 523.07 582.67C562.48 552.33 594.74 513.15 616.87 468.09C594.01 457.02 570.13 447.23 545.3 438.79C475.43 415.03 401.31 402.98 325 402.98Z" fill="#2C51B7"/>
<path d="M152 270.1L7.14001 257.06C2.48001 278.97 0 301.7 0 325C0 328.11 0.0500146 331.21 0.140015 334.3L152 319.38C174.09 319.38 192 308.35 192 294.74C192 281.13 174.09 270.1 152 270.1Z" fill="#2C51B7"/>
<path d="M408.26 328.15C408.26 339.91 417.79 349.43 429.54 349.43L646.55 372.34C648.81 356.88 650 341.07 650 324.99C650 314.98 649.52 305.08 648.64 295.29L429.55 306.86C417.79 306.86 408.27 316.39 408.27 328.14L408.26 328.15Z" fill="#2C51B7"/>
<g style="mix-blend-mode:soft-light" opacity="0.2">
<path d="M650 325C650 145.51 504.49 0 325 0V650C504.49 650 650 504.49 650 325Z" fill="black"/>
</g>
</svg>
