<svg width="650" height="650" viewBox="0 0 650 650" fill="none" xmlns="http://www.w3.org/2000/svg">
<path d="M325 650C504.493 650 650 504.493 650 325C650 145.507 504.493 0 325 0C145.507 0 0 145.507 0 325C0 504.493 145.507 650 325 650Z" fill="#DAE8EF"/>
<path d="M216.85 203.94C264.904 203.94 303.86 192.984 303.86 179.47C303.86 165.956 264.904 155 216.85 155C168.796 155 129.84 165.956 129.84 179.47C129.84 192.984 168.796 203.94 216.85 203.94Z" fill="#C1CFD3"/>
<path d="M627.7 206.47C624.54 198.41 621.06 190.5 617.29 182.77C602.38 180.52 583.46 179.17 562.85 179.17C514.8 179.17 475.84 186.5 475.84 195.55C475.84 204.6 514.8 211.93 562.85 211.93C588.62 211.93 611.76 209.82 627.7 206.47Z" fill="#C1CFD3"/>
<path d="M69.8501 493.17C62.0001 493.17 54.3999 493.4 47.1699 493.77C53.9799 504.97 61.46 516.01 69.54 526.01H69.8501C117.9 526.01 156.86 518.64 156.86 509.59C156.86 500.54 117.9 493.17 69.8501 493.17Z" fill="#C1CFD3"/>
<path d="M304.21 383.5C361.3 383.5 407.58 374.788 407.58 364.04C407.58 353.293 361.3 344.58 304.21 344.58C247.12 344.58 200.84 353.293 200.84 364.04C200.84 374.788 247.12 383.5 304.21 383.5Z" fill="#C1CFD3"/>
<path d="M271.8 501.16C291.329 501.16 307.16 496.866 307.16 491.57C307.16 486.274 291.329 481.98 271.8 481.98C252.271 481.98 236.44 486.274 236.44 491.57C236.44 496.866 252.271 501.16 271.8 501.16Z" fill="#C1CFD3"/>
<path d="M443.21 297.5C470.708 297.5 493 288.788 493 278.04C493 267.293 470.708 258.58 443.21 258.58C415.712 258.58 393.42 267.293 393.42 278.04C393.42 288.788 415.712 297.5 443.21 297.5Z" fill="#C1CFD3"/>
<path d="M236.26 12.27C242.11 20.48 261.35 26.5 284.21 26.5C311.71 26.5 334 17.79 334 7.04004C334 4.59004 332.83 2.24008 330.71 0.0800781C328.81 0.0500781 326.91 0.0100098 325 0.0100098C294.23 0.0100098 264.47 4.29003 236.26 12.28V12.27Z" fill="#C1CFD3"/>
<path d="M433.72 572.14C470.099 572.14 499.59 566.588 499.59 559.74C499.59 552.892 470.099 547.34 433.72 547.34C397.341 547.34 367.85 552.892 367.85 559.74C367.85 566.588 397.341 572.14 433.72 572.14Z" fill="#C1CFD3"/>
<path d="M546.62 448.97C571.456 448.97 591.59 445.178 591.59 440.5C591.59 435.822 571.456 432.03 546.62 432.03C521.784 432.03 501.65 435.822 501.65 440.5C501.65 445.178 521.784 448.97 546.62 448.97Z" fill="#C9DBE2"/>
<path d="M16.72 278.15C53.1 278.15 82.5901 272.6 82.5901 265.75C82.5901 258.9 53.1 253.35 16.72 253.35C13.73 253.35 10.7999 253.39 7.91992 253.46C6.10992 261.5 4.60991 269.65 3.40991 277.9C7.70991 278.07 12.16 278.15 16.72 278.15Z" fill="#C1CFD3"/>
<g style="mix-blend-mode:soft-light" opacity="0.34">
<path d="M650 325C650 145.51 504.49 0 325 0V650C504.49 650 650 504.49 650 325Z" fill="black"/>
</g>
</svg>
