<svg width="1144" height="650" viewBox="0 0 1144 650" fill="none" xmlns="http://www.w3.org/2000/svg">
<path d="M572 650C751.493 650 897 504.493 897 325C897 145.507 751.493 0 572 0C392.507 0 247 145.507 247 325C247 504.493 392.507 650 572 650Z" fill="#FFE578"/>
<path d="M841.12 236.03C854.06 230.56 866.64 224.46 878.87 217.78C876.1 209.85 873.03 202.07 869.68 194.43C869.63 194.32 869.59 194.22 869.54 194.11C868.73 192.27 867.91 190.44 867.06 188.62C867 188.5 866.94 188.37 866.89 188.25C863.51 180.96 859.86 173.83 855.97 166.85C855.74 166.45 855.52 166.04 855.29 165.64C854.44 164.13 853.58 162.63 852.71 161.14C852.46 160.71 852.2 160.28 851.95 159.85C849.13 155.07 846.19 150.38 843.13 145.77C842.88 145.39 842.63 145.01 842.38 144.63C841.5 143.32 840.61 142.02 839.72 140.72C839.3 140.11 838.88 139.5 838.46 138.9C837.58 137.65 836.7 136.4 835.81 135.16C835.38 134.57 834.95 133.98 834.52 133.39C833.59 132.11 832.65 130.84 831.7 129.57C786.11 154.68 733.73 168.99 678.01 168.99C571.98 168.99 460.01 146.99 401.24 48.45C399.22 49.72 397.3 50.93 395.46 52.1C376.95 64.1 359.74 77.93 344.09 93.34C342.75 94.68 341.36 96.07 339.92 97.52C352.53 114.71 454.02 264.98 678.02 268.98C734.53 269.99 789.42 257.89 841.14 236.01L841.12 236.03Z" fill="#FFF39F"/>
<path d="M866.27 463.08C885.97 421.17 897 374.38 897 325C897 295.07 892.93 266.09 885.36 238.57C834.98 351.8 605 384 459 368C326.74 353.51 270 269 258.62 238.57C251.25 258.87 246.25 306.25 247 325C249.57 389.24 265.67 449.22 297.88 499.66C323.62 517.49 351.15 532.63 380.27 544.95C436.94 568.92 497.07 581.07 558.99 581.07C620.91 581.07 681.05 568.92 737.71 544.95C785.05 524.93 828.19 497.44 866.26 463.08H866.27Z" fill="#FFF39F"/>
<g style="mix-blend-mode:soft-light" opacity="0.37">
<path d="M897 325C897 145.51 751.49 0 572 0V650C751.49 650 897 504.49 897 325Z" fill="black"/>
</g>
<path d="M1134.59 62.66C1126.79 45.94 1110.23 23.33 1075.57 10.53C1058.3 4.15 1038.31 0.840008 1014.47 0.410008C977.75 -0.249993 930.77 6.13999 874.82 19.39C837.02 28.34 795.87 40.24 752.44 54.66C777.26 71.26 799.66 91.1999 819.02 113.82C911.55 93.6999 965.77 102.87 980.52 134.5C1007.07 191.44 895.75 299.55 620.08 428.1C344.41 556.65 190.04 572.43 163.49 515.49C148.74 483.86 176.53 436.44 251.4 378.5C248.51 361.09 247 343.22 247 324.99C247 312.97 247.67 301.11 248.94 289.43C209.97 313.43 174.4 337.32 143.24 360.52C97.1201 394.86 62.03 426.75 38.93 455.3C23.93 473.84 13.62 491.28 7.4 508.61C-5.07 543.39 1.6 570.62 9.4 587.33C17.2 604.05 33.76 626.66 68.42 639.46C85.69 645.84 105.68 649.15 129.52 649.58C166.24 650.24 213.22 643.85 269.17 630.6C377.02 605.05 512.14 555.66 649.65 491.54C787.16 427.42 911.84 355.65 1000.74 289.46C1046.86 255.12 1081.95 223.23 1105.05 194.68C1120.05 176.14 1130.36 158.7 1136.58 141.37C1149.05 106.59 1142.38 79.36 1134.58 62.65L1134.59 62.66Z" fill="#FF8A50"/>
<path d="M1037.12 108.11C1030.67 94.29 1016.98 75.59 988.32 65.01C974.04 59.74 957.52 57 937.8 56.65C907.45 56.1 868.6 61.38 822.34 72.34C810.94 75.04 799.17 78.07 787.08 81.39C798.46 91.44 809.12 102.28 818.99 113.82C911.52 93.6999 965.74 102.87 980.49 134.5C1007.04 191.44 895.72 299.55 620.05 428.1C344.38 556.65 190.01 572.43 163.46 515.49C148.71 483.86 176.5 436.44 251.37 378.5C248.92 363.71 247.47 348.58 247.09 333.19C236.77 340.31 226.89 347.38 217.5 354.37C179.37 382.76 150.36 409.12 131.26 432.73C118.86 448.06 110.33 462.48 105.19 476.8C94.88 505.55 100.4 528.06 106.84 541.89C113.29 555.71 126.98 574.41 155.64 584.99C169.92 590.26 186.44 593 206.16 593.35C236.51 593.9 275.36 588.62 321.62 577.66C410.78 556.54 522.5 515.71 636.18 462.69C749.87 409.68 852.95 350.34 926.45 295.62C964.58 267.23 993.59 240.87 1012.69 217.26C1025.09 201.93 1033.62 187.51 1038.76 173.19C1049.07 144.44 1043.55 121.93 1037.11 108.1L1037.12 108.11Z" fill="#FFBE88"/>
</svg>
