<svg width="3805" height="3846" viewBox="0 0 3805 3846" fill="none" xmlns="http://www.w3.org/2000/svg">
<path d="M1036 2212C1047.05 2212 1056 2203.05 1056 2192C1056 2180.95 1047.05 2172 1036 2172C1024.95 2172 1016 2180.95 1016 2192C1016 2203.05 1024.95 2212 1036 2212Z" fill="#5D577A"/>
<path d="M1857 3556C1868.05 3556 1877 3547.05 1877 3536C1877 3524.95 1868.05 3516 1857 3516C1845.95 3516 1837 3524.95 1837 3536C1837 3547.05 1845.95 3556 1857 3556Z" fill="#494563"/>
<path d="M2273 40C2284.05 40 2293 31.0457 2293 20C2293 8.9543 2284.05 0 2273 0C2261.95 0 2253 8.9543 2253 20C2253 31.0457 2261.95 40 2273 40Z" fill="#494563"/>
<path d="M3763 2098C3774.05 2098 3783 2089.05 3783 2078C3783 2066.95 3774.05 2058 3763 2058C3751.95 2058 3743 2066.95 3743 2078C3743 2089.05 3751.95 2098 3763 2098Z" fill="#494563"/>
<path d="M2807 3440C2818.05 3440 2827 3431.05 2827 3420C2827 3408.95 2818.05 3400 2807 3400C2795.95 3400 2787 3408.95 2787 3420C2787 3431.05 2795.95 3440 2807 3440Z" fill="#494563"/>
<path d="M272 3604C283.046 3604 292 3595.05 292 3584C292 3572.95 283.046 3564 272 3564C260.954 3564 252 3572.95 252 3584C252 3595.05 260.954 3604 272 3604Z" fill="#494563"/>
<path d="M2147 2656C2158.05 2656 2167 2647.05 2167 2636C2167 2624.95 2158.05 2616 2147 2616C2135.95 2616 2127 2624.95 2127 2636C2127 2647.05 2135.95 2656 2147 2656Z" fill="#5D577A"/>
<path d="M178 1382C189.046 1382 198 1373.05 198 1362C198 1350.95 189.046 1342 178 1342C166.954 1342 158 1350.95 158 1362C158 1373.05 166.954 1382 178 1382Z" fill="#494563"/>
<path d="M340 113C351.046 113 360 104.046 360 93C360 81.9543 351.046 73 340 73C328.954 73 320 81.9543 320 93C320 104.046 328.954 113 340 113Z" fill="#494563"/>
<path d="M3227 2742C3238.05 2742 3247 2733.05 3247 2722C3247 2710.95 3238.05 2702 3227 2702C3215.95 2702 3207 2710.95 3207 2722C3207 2733.05 3215.95 2742 3227 2742Z" fill="#494563"/>
<path d="M2797 1608C2802.52 1608 2807 1603.52 2807 1598C2807 1592.48 2802.52 1588 2797 1588C2791.48 1588 2787 1592.48 2787 1598C2787 1603.52 2791.48 1608 2797 1608Z" fill="#5D577A"/>
<path d="M1749 1510C1754.52 1510 1759 1505.52 1759 1500C1759 1494.48 1754.52 1490 1749 1490C1743.48 1490 1739 1494.48 1739 1500C1739 1505.52 1743.48 1510 1749 1510Z" fill="#5D577A"/>
<path d="M1383 1368C1388.52 1368 1393 1363.52 1393 1358C1393 1352.48 1388.52 1348 1383 1348C1377.48 1348 1373 1352.48 1373 1358C1373 1363.52 1377.48 1368 1383 1368Z" fill="#5D577A"/>
<path d="M1863 766C1868.52 766 1873 761.523 1873 756C1873 750.477 1868.52 746 1863 746C1857.48 746 1853 750.477 1853 756C1853 761.523 1857.48 766 1863 766Z" fill="#5D577A"/>
<path d="M746 228C751.523 228 756 223.523 756 218C756 212.477 751.523 208 746 208C740.477 208 736 212.477 736 218C736 223.523 740.477 228 746 228Z" fill="#494563"/>
<path d="M1106 66C1111.52 66 1116 61.5228 1116 56C1116 50.4772 1111.52 46 1106 46C1100.48 46 1096 50.4772 1096 56C1096 61.5228 1100.48 66 1106 66Z" fill="#494563"/>
<path d="M1815 187C1820.52 187 1825 182.523 1825 177C1825 171.477 1820.52 167 1815 167C1809.48 167 1805 171.477 1805 177C1805 182.523 1809.48 187 1815 187Z" fill="#494563"/>
<path d="M1651 73C1656.52 73 1661 68.5228 1661 63C1661 57.4772 1656.52 53 1651 53C1645.48 53 1641 57.4772 1641 63C1641 68.5228 1645.48 73 1651 73Z" fill="#494563"/>
<path d="M3189 1271C3194.52 1271 3199 1266.52 3199 1261C3199 1255.48 3194.52 1251 3189 1251C3183.48 1251 3179 1255.48 3179 1261C3179 1266.52 3183.48 1271 3189 1271Z" fill="#494563"/>
<path d="M3261 227C3266.52 227 3271 222.523 3271 217C3271 211.477 3266.52 207 3261 207C3255.48 207 3251 211.477 3251 217C3251 222.523 3255.48 227 3261 227Z" fill="#494563"/>
<path d="M2369 197C2374.52 197 2379 192.523 2379 187C2379 181.477 2374.52 177 2369 177C2363.48 177 2359 181.477 2359 187C2359 192.523 2363.48 197 2369 197Z" fill="#494563"/>
<path d="M2521 123C2526.52 123 2531 118.523 2531 113C2531 107.477 2526.52 103 2521 103C2515.48 103 2511 107.477 2511 113C2511 118.523 2515.48 123 2521 123Z" fill="#494563"/>
<path d="M2033 2910C2038.52 2910 2043 2905.52 2043 2900C2043 2894.48 2038.52 2890 2033 2890C2027.48 2890 2023 2894.48 2023 2900C2023 2905.52 2027.48 2910 2033 2910Z" fill="#5D577A"/>
<path d="M70 2542C75.5228 2542 80 2537.52 80 2532C80 2526.48 75.5228 2522 70 2522C64.4772 2522 60 2526.48 60 2532C60 2537.52 64.4772 2542 70 2542Z" fill="#494563"/>
<path d="M110 1980C115.523 1980 120 1975.52 120 1970C120 1964.48 115.523 1960 110 1960C104.477 1960 100 1964.48 100 1970C100 1975.52 104.477 1980 110 1980Z" fill="#494563"/>
<path d="M372 2662C377.523 2662 382 2657.52 382 2652C382 2646.48 377.523 2642 372 2642C366.477 2642 362 2646.48 362 2652C362 2657.52 366.477 2662 372 2662Z" fill="#494563"/>
<path d="M454 3796C459.523 3796 464 3791.52 464 3786C464 3780.48 459.523 3776 454 3776C448.477 3776 444 3780.48 444 3786C444 3791.52 448.477 3796 454 3796Z" fill="#494563"/>
<path d="M114 3804C119.523 3804 124 3799.52 124 3794C124 3788.48 119.523 3784 114 3784C108.477 3784 104 3788.48 104 3794C104 3799.52 108.477 3804 114 3804Z" fill="#494563"/>
<path d="M10 3460C15.5228 3460 20 3455.52 20 3450C20 3444.48 15.5228 3440 10 3440C4.47715 3440 0 3444.48 0 3450C0 3455.52 4.47715 3460 10 3460Z" fill="#494563"/>
<path d="M901 3554C906.523 3554 911 3549.52 911 3544C911 3538.48 906.523 3534 901 3534C895.477 3534 891 3538.48 891 3544C891 3549.52 895.477 3554 901 3554Z" fill="#494563"/>
<path d="M964 2864C969.523 2864 974 2859.52 974 2854C974 2848.48 969.523 2844 964 2844C958.477 2844 954 2848.48 954 2854C954 2859.52 958.477 2864 964 2864Z" fill="#5D577A"/>
<path d="M1615 3806C1620.52 3806 1625 3801.52 1625 3796C1625 3790.48 1620.52 3786 1615 3786C1609.48 3786 1605 3790.48 1605 3796C1605 3801.52 1609.48 3806 1615 3806Z" fill="#494563"/>
<path d="M1917 3846C1922.52 3846 1927 3841.52 1927 3836C1927 3830.48 1922.52 3826 1917 3826C1911.48 3826 1907 3830.48 1907 3836C1907 3841.52 1911.48 3846 1917 3846Z" fill="#494563"/>
<path d="M2539 3766C2544.52 3766 2549 3761.52 2549 3756C2549 3750.48 2544.52 3746 2539 3746C2533.48 3746 2529 3750.48 2529 3756C2529 3761.52 2533.48 3766 2539 3766Z" fill="#494563"/>
<path d="M3255 3798C3260.52 3798 3265 3793.52 3265 3788C3265 3782.48 3260.52 3778 3255 3778C3249.48 3778 3245 3782.48 3245 3788C3245 3793.52 3249.48 3798 3255 3798Z" fill="#494563"/>
<path d="M3507 2308C3512.52 2308 3517 2303.52 3517 2298C3517 2292.48 3512.52 2288 3507 2288C3501.48 2288 3497 2292.48 3497 2298C3497 2303.52 3501.48 2308 3507 2308Z" fill="#494563"/>
<path d="M3795 2974C3800.52 2974 3805 2969.52 3805 2964C3805 2958.48 3800.52 2954 3795 2954C3789.48 2954 3785 2958.48 3785 2964C3785 2969.52 3789.48 2974 3795 2974Z" fill="#494563"/>
<path d="M3683 3410C3688.52 3410 3693 3405.52 3693 3400C3693 3394.48 3688.52 3390 3683 3390C3677.48 3390 3673 3394.48 3673 3400C3673 3405.52 3677.48 3410 3683 3410Z" fill="#494563"/>
<path d="M3595 3774C3600.52 3774 3605 3769.52 3605 3764C3605 3758.48 3600.52 3754 3595 3754C3589.48 3754 3585 3758.48 3585 3764C3585 3769.52 3589.48 3774 3595 3774Z" fill="#494563"/>
<path d="M2385 2444C2390.52 2444 2395 2439.52 2395 2434C2395 2428.48 2390.52 2424 2385 2424C2379.48 2424 2375 2428.48 2375 2434C2375 2439.52 2379.48 2444 2385 2444Z" fill="#5D577A"/>
<path d="M3497 1458C3502.52 1458 3507 1453.52 3507 1448C3507 1442.48 3502.52 1438 3497 1438C3491.48 1438 3487 1442.48 3487 1448C3487 1453.52 3491.48 1458 3497 1458Z" fill="#494563"/>
<path d="M2283 1281C2288.52 1281 2293 1276.52 2293 1271C2293 1265.48 2288.52 1261 2283 1261C2277.48 1261 2273 1265.48 2273 1271C2273 1276.52 2277.48 1281 2283 1281Z" fill="#5D577A"/>
<path d="M300 2192C305.523 2192 310 2187.52 310 2182C310 2176.48 305.523 2172 300 2172C294.477 2172 290 2176.48 290 2182C290 2187.52 294.477 2192 300 2192Z" fill="#494563"/>
<path d="M1665 1290C1670.52 1290 1675 1285.52 1675 1280C1675 1274.48 1670.52 1270 1665 1270C1659.48 1270 1655 1274.48 1655 1280C1655 1285.52 1659.48 1290 1665 1290Z" fill="#5D577A"/>
<path d="M2901 1392C2906.52 1392 2911 1387.52 2911 1382C2911 1376.48 2906.52 1372 2901 1372C2895.48 1372 2891 1376.48 2891 1382C2891 1387.52 2895.48 1392 2901 1392Z" fill="#5D577A"/>
<path d="M3693 739C3698.52 739 3703 734.523 3703 729C3703 723.477 3698.52 719 3693 719C3687.48 719 3683 723.477 3683 729C3683 734.523 3687.48 739 3693 739Z" fill="#494563"/>
<path d="M3763 40C3768.52 40 3773 35.5228 3773 30C3773 24.4772 3768.52 20 3763 20C3757.48 20 3753 24.4772 3753 30C3753 35.5228 3757.48 40 3763 40Z" fill="#494563"/>
<path d="M3753 1402C3758.52 1402 3763 1397.52 3763 1392C3763 1386.48 3758.52 1382 3753 1382C3747.48 1382 3743 1386.48 3743 1392C3743 1397.52 3747.48 1402 3753 1402Z" fill="#494563"/>
<path d="M3743 2414C3748.52 2414 3753 2409.52 3753 2404C3753 2398.48 3748.52 2394 3743 2394C3737.48 2394 3733 2398.48 3733 2404C3733 2409.52 3737.48 2414 3743 2414Z" fill="#494563"/>
<path d="M459 1416C464.523 1416 469 1411.52 469 1406C469 1400.48 464.523 1396 459 1396C453.477 1396 449 1400.48 449 1406C449 1411.52 453.477 1416 459 1416Z" fill="#494563"/>
<path d="M2695 2618C2700.52 2618 2705 2613.52 2705 2608C2705 2602.48 2700.52 2598 2695 2598C2689.48 2598 2685 2602.48 2685 2608C2685 2613.52 2689.48 2618 2695 2618Z" fill="#5D577A"/>
<path d="M1437 2618C1442.52 2618 1447 2613.52 1447 2608C1447 2602.48 1442.52 2598 1437 2598C1431.48 2598 1427 2602.48 1427 2608C1427 2613.52 1431.48 2618 1437 2618Z" fill="#5D577A"/>
<path d="M3585 183C3596.05 183 3605 174.046 3605 163C3605 151.954 3596.05 143 3585 143C3573.95 143 3565 151.954 3565 163C3565 174.046 3573.95 183 3585 183Z" fill="#494563"/>
<path d="M2595 1443C2606.05 1443 2615 1434.05 2615 1423C2615 1411.95 2606.05 1403 2595 1403C2583.95 1403 2575 1411.95 2575 1423C2575 1434.05 2583.95 1443 2595 1443Z" fill="#5D577A"/>
<path d="M70 589C75.5228 589 80 584.523 80 579C80 573.477 75.5228 569 70 569C64.4772 569 60 573.477 60 579C60 584.523 64.4772 589 70 589Z" fill="#494563"/>
<path d="M973 1520C978.523 1520 983 1515.52 983 1510C983 1504.48 978.523 1500 973 1500C967.477 1500 963 1504.48 963 1510C963 1515.52 967.477 1520 973 1520Z" fill="#5D577A"/>
<path d="M975 1520C980.523 1520 985 1515.52 985 1510C985 1504.48 980.523 1500 975 1500C969.477 1500 965 1504.48 965 1510C965 1515.52 969.477 1520 975 1520Z" fill="#5D577A"/>
<path d="M2810.3 1273.14C2808.16 1285.32 2770.56 1275.94 2761.17 1282.53C2751.79 1289.11 2747.81 1327.66 2735.62 1325.53C2723.44 1323.39 2732.82 1285.79 2726.23 1276.4C2719.65 1267.02 2681.1 1263.04 2683.23 1250.85C2685.37 1238.67 2722.97 1248.05 2732.36 1241.46C2741.74 1234.88 2745.72 1196.33 2757.91 1198.46C2770.09 1200.6 2760.71 1238.2 2767.3 1247.59C2773.89 1256.98 2812.43 1260.95 2810.3 1273.14Z" fill="#62627A"/>
<path d="M2096.72 3762.42C2095.11 3774.68 2057.14 3766.92 2048.04 3773.9C2038.94 3780.88 2036.62 3819.56 2024.35 3817.95C2012.09 3816.34 2019.85 3778.37 2012.87 3769.27C2005.89 3760.18 1967.21 3757.85 1968.82 3745.58C1970.43 3733.31 2008.4 3741.08 2017.5 3734.1C2026.6 3727.12 2028.92 3688.44 2041.19 3690.05C2053.45 3691.66 2045.69 3729.63 2052.67 3738.73C2059.65 3747.82 2098.33 3750.15 2096.72 3762.42Z" fill="#494563"/>
<path d="M1184.39 2510.74C1186.49 2523.54 1142.62 2526.48 1135.61 2536.25C1128.6 2546.02 1139.83 2588.52 1127.03 2590.62C1114.23 2592.72 1111.29 2548.85 1101.52 2541.84C1091.75 2534.83 1049.25 2546.06 1047.15 2533.26C1045.05 2520.46 1088.92 2517.52 1095.93 2507.75C1102.94 2497.98 1091.71 2455.48 1104.51 2453.38C1117.31 2451.28 1120.25 2495.15 1130.02 2502.16C1139.79 2509.17 1182.29 2497.94 1184.39 2510.74Z" fill="#5D577A"/>
<path d="M3723.39 2866.33C3721.76 2881.29 3662.99 2866.11 3652.11 2874.84C3641.24 2883.58 3643.41 2944.24 3628.44 2942.61C3613.48 2940.98 3628.66 2882.21 3619.93 2871.33C3611.19 2860.46 3550.53 2862.63 3552.16 2847.66C3553.79 2832.7 3612.56 2847.88 3623.44 2839.15C3634.31 2830.41 3632.14 2769.75 3647.11 2771.38C3662.07 2773.01 3646.89 2831.78 3655.62 2842.66C3664.36 2853.53 3725.02 2851.36 3723.39 2866.33Z" fill="#494563"/>
<path d="M197.08 477.27C197.39 488.59 156.28 484.9 149.07 492.53C141.86 500.15 147.82 541 136.5 541.31C125.18 541.62 128.87 500.51 121.24 493.3C113.62 486.09 72.77 492.05 72.46 480.73C72.15 469.41 113.26 473.1 120.47 465.47C127.68 457.85 121.72 417 133.04 416.69C144.36 416.38 140.67 457.49 148.3 464.7C155.92 471.91 196.77 465.95 197.08 477.27Z" fill="#494563"/>
</svg>
