<svg width="1264" height="1264" viewBox="0 0 1264 1264" fill="none" xmlns="http://www.w3.org/2000/svg">
<path d="M1263.76 632C1263.76 664.83 1231.38 694.73 1226.44 726.18C1221.37 758.46 1242.88 796.87 1233 827.28C1222.95 858.23 1182.89 876.65 1168.3 905.24C1153.55 934.13 1162.08 977.34 1143.14 1003.37C1124.11 1029.52 1080.33 1034.69 1057.51 1057.51C1034.69 1080.33 1029.52 1124.11 1003.37 1143.14C977.34 1162.08 934.12 1153.55 905.24 1168.3C876.65 1182.89 858.23 1222.95 827.28 1233C796.87 1242.87 758.46 1221.36 726.18 1226.44C694.74 1231.38 664.83 1263.76 632 1263.76C599.17 1263.76 569.27 1231.38 537.82 1226.44C505.54 1221.37 467.13 1242.88 436.72 1233C405.77 1222.95 387.35 1182.89 358.76 1168.3C329.87 1153.55 286.66 1162.08 260.63 1143.14C234.48 1124.11 229.31 1080.33 206.49 1057.51C183.67 1034.69 139.89 1029.52 120.86 1003.37C101.92 977.34 110.45 934.12 95.7 905.24C81.11 876.65 41.05 858.23 31 827.28C21.13 796.87 42.6401 758.46 37.5601 726.18C32.6201 694.74 0.23999 664.83 0.23999 632C0.23999 599.17 32.6201 569.27 37.5601 537.82C42.6301 505.54 21.12 467.13 31 436.72C41.05 405.77 81.11 387.35 95.7 358.76C110.45 329.87 101.92 286.66 120.86 260.63C139.89 234.48 183.67 229.31 206.49 206.49C229.31 183.67 234.48 139.89 260.63 120.86C286.66 101.92 329.88 110.45 358.76 95.7C387.35 81.11 405.77 41.05 436.72 31C467.13 21.13 505.54 42.6401 537.82 37.5601C569.26 32.6201 599.17 0.23999 632 0.23999C664.83 0.23999 694.73 32.6201 726.18 37.5601C758.46 42.6301 796.87 21.12 827.28 31C858.23 41.05 876.65 81.11 905.24 95.7C934.13 110.45 977.34 101.92 1003.37 120.86C1029.52 139.89 1034.69 183.67 1057.51 206.49C1080.33 229.31 1124.11 234.48 1143.14 260.63C1162.08 286.66 1153.55 329.88 1168.3 358.76C1182.89 387.35 1222.95 405.77 1233 436.72C1242.87 467.13 1221.36 505.54 1226.44 537.82C1231.38 569.26 1263.76 599.17 1263.76 632Z" fill="#FFC943"/>
<path d="M632 1158.01C922.507 1158.01 1158.01 922.507 1158.01 632C1158.01 341.493 922.507 105.99 632 105.99C341.493 105.99 105.99 341.493 105.99 632C105.99 922.507 341.493 1158.01 632 1158.01Z" fill="#FF9B40"/>
<path d="M931.72 441.23C927.74 462.32 894.01 469.29 880.94 484.46C867.46 500.11 865.3 534.34 845.82 541.19C826.93 547.83 804.05 522.77 782.97 518.79C761.88 514.81 731.45 529.81 716.28 516.74C700.63 503.26 711.09 470.6 704.24 451.11C697.6 432.22 668.73 413.44 672.71 392.35C676.69 371.26 710.42 364.29 723.49 349.12C736.97 333.47 739.13 299.24 758.61 292.39C777.5 285.75 800.38 310.81 821.46 314.79C842.55 318.77 872.98 303.77 888.15 316.84C903.8 330.32 893.34 362.98 900.19 382.47C906.83 401.36 935.7 420.14 931.72 441.23Z" fill="#FF8643"/>
<path d="M508.23 839.96C510 862.35 470.89 873.07 457.38 888.9C443.87 904.73 439.43 945.04 417.04 946.81C394.65 948.58 383.93 909.47 368.1 895.96C352.27 882.45 311.96 878.01 310.19 855.62C308.42 833.23 347.53 822.51 361.04 806.68C374.55 790.85 378.99 750.54 401.38 748.77C423.77 747 434.49 786.11 450.32 799.62C466.15 813.13 506.46 817.57 508.23 839.96Z" fill="#FF8643"/>
<path d="M931 836.11C926.73 850.53 902.66 850.21 890.41 856.86C878.16 863.51 865.31 883.86 850.89 879.58C836.47 875.31 836.79 851.24 830.14 838.99C823.49 826.74 803.14 813.89 807.42 799.47C811.69 785.05 835.76 785.37 848.01 778.72C860.26 772.07 873.11 751.72 887.53 756C901.95 760.27 901.63 784.34 908.28 796.59C914.93 808.84 935.28 821.69 931 836.11Z" fill="#FF8643"/>
<path d="M505.478 550.061C518.881 536.658 518.881 514.928 505.479 501.525C492.076 488.122 470.345 488.122 456.943 501.525C443.54 514.928 443.54 536.658 456.943 550.061C470.346 563.464 492.076 563.464 505.478 550.061Z" fill="#FF8643"/>
<g style="mix-blend-mode:soft-light" opacity="0.2">
<path d="M726.18 1226.43C758.46 1221.36 796.87 1242.87 827.28 1232.99C858.23 1222.94 876.65 1182.88 905.24 1168.29C934.13 1153.54 977.34 1162.07 1003.37 1143.13C1029.52 1124.1 1034.69 1080.32 1057.51 1057.5C1080.33 1034.68 1124.11 1029.51 1143.14 1003.36C1162.08 977.33 1153.55 934.11 1168.3 905.23C1182.89 876.64 1222.95 858.22 1233 827.27C1242.87 796.86 1221.36 758.45 1226.44 726.17C1231.38 694.73 1263.76 664.82 1263.76 631.99C1263.76 599.16 1231.38 569.26 1226.44 537.81C1221.37 505.53 1242.88 467.12 1233 436.71C1222.95 405.76 1182.89 387.34 1168.3 358.75C1153.55 329.86 1162.08 286.65 1143.14 260.62C1124.11 234.47 1080.33 229.3 1057.51 206.48C1034.69 183.66 1029.52 139.88 1003.37 120.85C977.34 101.91 934.12 110.44 905.24 95.6899C876.65 81.0999 858.23 41.04 827.28 30.99C796.87 21.12 758.46 42.63 726.18 37.55C694.74 32.61 664.83 0.22998 632 0.22998V1263.75C664.83 1263.75 694.73 1231.37 726.18 1226.43Z" fill="black"/>
</g>
</svg>
