<svg width="1000" height="40" viewBox="0 0 1000 40" fill="none" xmlns="http://www.w3.org/2000/svg">
<path d="M0 2C0 0.895431 0.895431 0 2 0V0C3.10457 0 4 0.895431 4 2V40H0V2Z" fill="white"/>
<path d="M24.975 22C24.975 20.8954 25.8704 20 26.975 20V20C28.0795 20 28.975 20.8954 28.975 22V40H24.975V22Z" fill="white" fill-opacity="0.5"/>
<path d="M49.95 22C49.95 20.8954 50.8454 20 51.95 20V20C53.0545 20 53.95 20.8954 53.95 22V40H49.95V22Z" fill="white" fill-opacity="0.5"/>
<path d="M74.925 22C74.925 20.8954 75.8205 20 76.925 20V20C78.0296 20 78.925 20.8954 78.925 22V40H74.925V22Z" fill="white" fill-opacity="0.5"/>
<path d="M99.9 22C99.9 20.8954 100.795 20 101.9 20V20C103.005 20 103.9 20.8954 103.9 22V40H99.9V22Z" fill="white"/>
<path d="M124.875 22C124.875 20.8954 125.77 20 126.875 20V20C127.98 20 128.875 20.8954 128.875 22V40H124.875V22Z" fill="white" fill-opacity="0.5"/>
<path d="M149.85 22C149.85 20.8954 150.745 20 151.85 20V20C152.955 20 153.85 20.8954 153.85 22V40H149.85V22Z" fill="white" fill-opacity="0.5"/>
<path d="M174.825 22C174.825 20.8954 175.72 20 176.825 20V20C177.93 20 178.825 20.8954 178.825 22V40H174.825V22Z" fill="white" fill-opacity="0.5"/>
<path d="M199.8 22C199.8 20.8954 200.695 20 201.8 20V20C202.905 20 203.8 20.8954 203.8 22V40H199.8V22Z" fill="white"/>
<path d="M224.775 22C224.775 20.8954 225.67 20 226.775 20V20C227.88 20 228.775 20.8954 228.775 22V40H224.775V22Z" fill="white" fill-opacity="0.5"/>
<path d="M249.75 22C249.75 20.8954 250.645 20 251.75 20V20C252.855 20 253.75 20.8954 253.75 22V40H249.75V22Z" fill="white" fill-opacity="0.5"/>
<path d="M274.725 22C274.725 20.8954 275.621 20 276.725 20V20C277.83 20 278.725 20.8954 278.725 22V40H274.725V22Z" fill="white" fill-opacity="0.5"/>
<path d="M299.7 22C299.7 20.8954 300.596 20 301.7 20V20C302.805 20 303.7 20.8954 303.7 22V40H299.7V22Z" fill="white"/>
<path d="M324.675 22C324.675 20.8954 325.57 20 326.675 20V20C327.78 20 328.675 20.8954 328.675 22V40H324.675V22Z" fill="white" fill-opacity="0.5"/>
<path d="M349.65 22C349.65 20.8954 350.545 20 351.65 20V20C352.755 20 353.65 20.8954 353.65 22V40H349.65V22Z" fill="white" fill-opacity="0.5"/>
<path d="M374.625 22C374.625 20.8954 375.52 20 376.625 20V20C377.73 20 378.625 20.8954 378.625 22V40H374.625V22Z" fill="white" fill-opacity="0.5"/>
<path d="M399.6 22C399.6 20.8954 400.496 20 401.6 20V20C402.705 20 403.6 20.8954 403.6 22V40H399.6V22Z" fill="white"/>
<path d="M424.575 22C424.575 20.8954 425.471 20 426.575 20V20C427.68 20 428.575 20.8954 428.575 22V40H424.575V22Z" fill="white" fill-opacity="0.5"/>
<path d="M449.55 22C449.55 20.8954 450.445 20 451.55 20V20C452.655 20 453.55 20.8954 453.55 22V40H449.55V22Z" fill="white" fill-opacity="0.5"/>
<path d="M474.525 22C474.525 20.8954 475.421 20 476.525 20V20C477.63 20 478.525 20.8954 478.525 22V40H474.525V22Z" fill="white" fill-opacity="0.5"/>
<path d="M499.5 22C499.5 20.8954 500.396 20 501.5 20V20C502.605 20 503.5 20.8954 503.5 22V40H499.5V22Z" fill="white"/>
<path d="M524.475 22C524.475 20.8954 525.371 20 526.475 20V20C527.58 20 528.475 20.8954 528.475 22V40H524.475V22Z" fill="white" fill-opacity="0.5"/>
<path d="M549.45 22C549.45 20.8954 550.346 20 551.45 20V20C552.555 20 553.45 20.8954 553.45 22V40H549.45V22Z" fill="white" fill-opacity="0.5"/>
<path d="M574.425 22C574.425 20.8954 575.32 20 576.425 20V20C577.53 20 578.425 20.8954 578.425 22V40H574.425V22Z" fill="white" fill-opacity="0.5"/>
<path d="M599.4 22C599.4 20.8954 600.295 20 601.4 20V20C602.505 20 603.4 20.8954 603.4 22V40H599.4V22Z" fill="white"/>
<path d="M624.375 22C624.375 20.8954 625.27 20 626.375 20V20C627.48 20 628.375 20.8954 628.375 22V40H624.375V22Z" fill="white" fill-opacity="0.5"/>
<path d="M649.35 22C649.35 20.8954 650.245 20 651.35 20V20C652.455 20 653.35 20.8954 653.35 22V40H649.35V22Z" fill="white" fill-opacity="0.5"/>
<path d="M674.325 22C674.325 20.8954 675.22 20 676.325 20V20C677.43 20 678.325 20.8954 678.325 22V40H674.325V22Z" fill="white" fill-opacity="0.5"/>
<path d="M699.3 22C699.3 20.8954 700.195 20 701.3 20V20C702.404 20 703.3 20.8954 703.3 22V40H699.3V22Z" fill="white"/>
<path d="M724.275 22C724.275 20.8954 725.17 20 726.275 20V20C727.379 20 728.275 20.8954 728.275 22V40H724.275V22Z" fill="white" fill-opacity="0.5"/>
<path d="M749.25 22C749.25 20.8954 750.145 20 751.25 20V20C752.354 20 753.25 20.8954 753.25 22V40H749.25V22Z" fill="white" fill-opacity="0.5"/>
<path d="M774.225 22C774.225 20.8954 775.12 20 776.225 20V20C777.329 20 778.225 20.8954 778.225 22V40H774.225V22Z" fill="white" fill-opacity="0.5"/>
<path d="M799.2 22C799.2 20.8954 800.095 20 801.2 20V20C802.304 20 803.2 20.8954 803.2 22V40H799.2V22Z" fill="white"/>
<path d="M824.175 22C824.175 20.8954 825.07 20 826.175 20V20C827.279 20 828.175 20.8954 828.175 22V40H824.175V22Z" fill="white" fill-opacity="0.5"/>
<path d="M849.15 22C849.15 20.8954 850.045 20 851.15 20V20C852.254 20 853.15 20.8954 853.15 22V40H849.15V22Z" fill="white" fill-opacity="0.5"/>
<path d="M874.125 22C874.125 20.8954 875.02 20 876.125 20V20C877.229 20 878.125 20.8954 878.125 22V40H874.125V22Z" fill="white" fill-opacity="0.5"/>
<path d="M899.1 22C899.1 20.8954 899.995 20 901.1 20V20C902.204 20 903.1 20.8954 903.1 22V40H899.1V22Z" fill="white"/>
<path d="M924.075 22C924.075 20.8954 924.97 20 926.075 20V20C927.179 20 928.075 20.8954 928.075 22V40H924.075V22Z" fill="white" fill-opacity="0.5"/>
<path d="M949.05 22C949.05 20.8954 949.945 20 951.05 20V20C952.154 20 953.05 20.8954 953.05 22V40H949.05V22Z" fill="white" fill-opacity="0.5"/>
<path d="M974.025 22C974.025 20.8954 974.92 20 976.025 20V20C977.129 20 978.025 20.8954 978.025 22V40H974.025V22Z" fill="white" fill-opacity="0.5"/>
</svg>
