<svg width="650" height="650" viewBox="0 0 650 650" fill="none" xmlns="http://www.w3.org/2000/svg">
<path d="M325 650C504.493 650 650 504.493 650 325C650 145.507 504.493 0 325 0C145.507 0 0 145.507 0 325C0 504.493 145.507 650 325 650Z" fill="#64ABFF"/>
<path d="M130.66 123.5H519.34C540 123.5 556.77 140.27 556.77 160.93C556.77 181.59 540 198.36 519.34 198.36H130.66C110 198.36 93.23 181.59 93.23 160.93C93.23 140.27 110 123.5 130.66 123.5Z" fill="#7BBDFF"/>
<path d="M467.34 552.43H236.66C215.99 552.43 199.23 535.67 199.23 515C199.23 494.33 215.99 477.57 236.66 477.57H467.34C488.01 477.57 504.77 494.33 504.77 515C504.77 535.67 488.01 552.43 467.34 552.43Z" fill="#7BBDFF"/>
<path d="M345.15 361.75H62.17C48.5285 361.75 37.47 372.809 37.47 386.45C37.47 400.091 48.5285 411.15 62.17 411.15H345.15C358.791 411.15 369.85 400.091 369.85 386.45C369.85 372.809 358.791 361.75 345.15 361.75Z" fill="#7BBDFF"/>
<g style="mix-blend-mode:soft-light" opacity="0.2">
<path d="M650 325C650 145.51 504.49 0 325 0V650C504.49 650 650 504.49 650 325Z" fill="black"/>
</g>
</svg>
