<svg width="650" height="650" viewBox="0 0 650 650" fill="none" xmlns="http://www.w3.org/2000/svg">
<path d="M325 650C504.493 650 650 504.493 650 325C650 145.507 504.493 0 325 0C145.507 0 0 145.507 0 325C0 504.493 145.507 650 325 650Z" fill="#F4BEBE"/>
<path d="M501.93 52.36C361.73 75.5 231.97 133.84 177.3 160.76C154.56 171.96 133.48 186.29 114.91 203.54C-3.84 313.85 293.83 243.52 361.61 227.65C419.25 214.16 572.38 278.84 648.36 292.19C638.29 191.68 582.42 104.69 501.93 52.35V52.36Z" fill="#EAB2B2"/>
<path d="M29.54 460.52C49.87 504.78 79.8601 543.68 116.8 574.54C171.35 562.36 225.6 557.09 243.6 520.48C265.15 476.64 520.75 503.58 501.99 428C491.89 387.29 76.63 398.65 29.54 460.52Z" fill="#EAB2B2"/>
<g style="mix-blend-mode:soft-light" opacity="0.22">
<path d="M650 325C650 145.51 504.49 0 325 0V650C504.49 650 650 504.49 650 325Z" fill="black"/>
</g>
</svg>
